<mxfile host="Electron" modified="2023-05-04T14:55:11.640Z" agent="Mozilla/5.0 (Windows NT 10.0; Win64; x64) AppleWebKit/537.36 (KHTML, like Gecko) draw.io/21.1.2 Chrome/106.0.5249.199 Electron/21.4.3 Safari/537.36" etag="kquQCPlLsBytmjXwlRPH" version="21.1.2" type="device">
  <diagram id="C5RBs43oDa-KdzZeNtuy" name="Page-1">
    <mxGraphModel dx="2518" dy="1929" grid="1" gridSize="10" guides="1" tooltips="1" connect="1" arrows="1" fold="1" page="1" pageScale="1" pageWidth="827" pageHeight="1169" math="0" shadow="0">
      <root>
        <mxCell id="WIyWlLk6GJQsqaUBKTNV-0" />
        <mxCell id="WIyWlLk6GJQsqaUBKTNV-1" parent="WIyWlLk6GJQsqaUBKTNV-0" />
        <mxCell id="zkfFHV4jXpPFQw0GAbJ--0" value="CustomerRequestHandler" style="swimlane;fontStyle=2;align=left;verticalAlign=top;childLayout=stackLayout;horizontal=1;startSize=26;horizontalStack=0;resizeParent=1;resizeLast=0;collapsible=1;marginBottom=0;rounded=0;shadow=0;strokeWidth=1;fillColor=#d5e8d4;strokeColor=#82b366;" parent="WIyWlLk6GJQsqaUBKTNV-1" vertex="1">
          <mxGeometry x="1735" y="1155.5" width="250" height="216.5" as="geometry">
            <mxRectangle x="230" y="140" width="160" height="26" as="alternateBounds" />
          </mxGeometry>
        </mxCell>
        <mxCell id="zkfFHV4jXpPFQw0GAbJ--1" value="+ userControlSystem : UserControlSystem" style="text;align=left;verticalAlign=top;spacingLeft=4;spacingRight=4;overflow=hidden;rotatable=0;points=[[0,0.5],[1,0.5]];portConstraint=eastwest;" parent="zkfFHV4jXpPFQw0GAbJ--0" vertex="1">
          <mxGeometry y="26" width="250" height="30" as="geometry" />
        </mxCell>
        <mxCell id="9LY999Uh6w9vxLKpFxIS-32" value="+ currentUser : User" style="text;html=1;strokeColor=none;fillColor=none;align=left;verticalAlign=middle;whiteSpace=wrap;rounded=0;" parent="zkfFHV4jXpPFQw0GAbJ--0" vertex="1">
          <mxGeometry y="56" width="250" height="30" as="geometry" />
        </mxCell>
        <mxCell id="zkfFHV4jXpPFQw0GAbJ--4" value="" style="line;html=1;strokeWidth=1;align=left;verticalAlign=middle;spacingTop=-1;spacingLeft=3;spacingRight=3;rotatable=0;labelPosition=right;points=[];portConstraint=eastwest;" parent="zkfFHV4jXpPFQw0GAbJ--0" vertex="1">
          <mxGeometry y="86" width="250" height="8" as="geometry" />
        </mxCell>
        <mxCell id="IjYpN3vLZNEgQKYUAEwy-20" value="+ CreateOrder()" style="text;strokeColor=none;fillColor=none;align=left;verticalAlign=top;spacingLeft=4;spacingRight=4;overflow=hidden;rotatable=0;points=[[0,0.5],[1,0.5]];portConstraint=eastwest;" parent="zkfFHV4jXpPFQw0GAbJ--0" vertex="1">
          <mxGeometry y="94" width="250" height="26" as="geometry" />
        </mxCell>
        <mxCell id="IjYpN3vLZNEgQKYUAEwy-21" value="&lt;p style=&quot;&quot; class=&quot;MsoNormal&quot;&gt;+ CancelOrder()&lt;/p&gt;" style="text;html=1;strokeColor=none;fillColor=none;align=left;verticalAlign=middle;whiteSpace=wrap;rounded=0;" parent="zkfFHV4jXpPFQw0GAbJ--0" vertex="1">
          <mxGeometry y="120" width="250" height="30" as="geometry" />
        </mxCell>
        <mxCell id="9LY999Uh6w9vxLKpFxIS-34" value="&lt;p style=&quot;&quot; class=&quot;MsoNormal&quot;&gt;+ CreateUser()&lt;/p&gt;" style="text;html=1;strokeColor=none;fillColor=none;align=left;verticalAlign=middle;whiteSpace=wrap;rounded=0;" parent="zkfFHV4jXpPFQw0GAbJ--0" vertex="1">
          <mxGeometry y="150" width="250" height="30" as="geometry" />
        </mxCell>
        <mxCell id="9LY999Uh6w9vxLKpFxIS-35" value="&lt;p class=&quot;MsoNormal&quot;&gt;+ DeleteUser()&lt;/p&gt;" style="text;html=1;strokeColor=none;fillColor=none;align=left;verticalAlign=middle;whiteSpace=wrap;rounded=0;" parent="zkfFHV4jXpPFQw0GAbJ--0" vertex="1">
          <mxGeometry y="180" width="250" height="30" as="geometry" />
        </mxCell>
        <mxCell id="zkfFHV4jXpPFQw0GAbJ--6" value="UserControlSystem" style="swimlane;fontStyle=0;align=left;verticalAlign=top;childLayout=stackLayout;horizontal=1;startSize=26;horizontalStack=0;resizeParent=1;resizeLast=0;collapsible=1;marginBottom=0;rounded=0;shadow=0;strokeWidth=1;fillColor=#d5e8d4;strokeColor=#82b366;" parent="WIyWlLk6GJQsqaUBKTNV-1" vertex="1">
          <mxGeometry x="1070" y="753" width="500" height="254" as="geometry">
            <mxRectangle x="130" y="380" width="160" height="26" as="alternateBounds" />
          </mxGeometry>
        </mxCell>
        <mxCell id="zkfFHV4jXpPFQw0GAbJ--7" value="+ customerRequestHandler:Â CustomerRequestHandler" style="text;align=left;verticalAlign=top;spacingLeft=4;spacingRight=4;overflow=hidden;rotatable=0;points=[[0,0.5],[1,0.5]];portConstraint=eastwest;" parent="zkfFHV4jXpPFQw0GAbJ--6" vertex="1">
          <mxGeometry y="26" width="500" height="26" as="geometry" />
        </mxCell>
        <mxCell id="zkfFHV4jXpPFQw0GAbJ--8" value="+ db : IDBRequestSystem" style="text;align=left;verticalAlign=top;spacingLeft=4;spacingRight=4;overflow=hidden;rotatable=0;points=[[0,0.5],[1,0.5]];portConstraint=eastwest;rounded=0;shadow=0;html=0;" parent="zkfFHV4jXpPFQw0GAbJ--6" vertex="1">
          <mxGeometry y="52" width="500" height="26" as="geometry" />
        </mxCell>
        <mxCell id="zkfFHV4jXpPFQw0GAbJ--9" value="" style="line;html=1;strokeWidth=1;align=left;verticalAlign=middle;spacingTop=-1;spacingLeft=3;spacingRight=3;rotatable=0;labelPosition=right;points=[];portConstraint=eastwest;" parent="zkfFHV4jXpPFQw0GAbJ--6" vertex="1">
          <mxGeometry y="78" width="500" height="8" as="geometry" />
        </mxCell>
        <mxCell id="zkfFHV4jXpPFQw0GAbJ--10" value="+ bool CreateUser(string login, string password, Role role)" style="text;align=left;verticalAlign=top;spacingLeft=4;spacingRight=4;overflow=hidden;rotatable=0;points=[[0,0.5],[1,0.5]];portConstraint=eastwest;fontStyle=0" parent="zkfFHV4jXpPFQw0GAbJ--6" vertex="1">
          <mxGeometry y="86" width="500" height="26" as="geometry" />
        </mxCell>
        <mxCell id="9LY999Uh6w9vxLKpFxIS-36" value="&lt;p style=&quot;&quot; class=&quot;MsoNormal&quot;&gt;&amp;nbsp;+ &lt;span lang=&quot;EN-US&quot;&gt;bool&lt;/span&gt;&lt;span lang=&quot;EN-US&quot;&gt; &lt;/span&gt;&lt;span&gt;DeleteUser(&lt;/span&gt;&lt;span lang=&quot;EN-US&quot;&gt;string&lt;/span&gt;&lt;span lang=&quot;EN-US&quot;&gt; &lt;/span&gt;&lt;span lang=&quot;EN-US&quot;&gt;login&lt;/span&gt;&lt;span&gt;)&lt;/span&gt;&lt;br&gt;&lt;/p&gt;" style="text;html=1;strokeColor=none;fillColor=none;align=left;verticalAlign=middle;whiteSpace=wrap;rounded=0;" parent="zkfFHV4jXpPFQw0GAbJ--6" vertex="1">
          <mxGeometry y="112" width="500" height="30" as="geometry" />
        </mxCell>
        <mxCell id="zkfFHV4jXpPFQw0GAbJ--11" value="+ bool ChangeUserInfo(string login, string newLogin, string password)" style="text;align=left;verticalAlign=top;spacingLeft=4;spacingRight=4;overflow=hidden;rotatable=0;points=[[0,0.5],[1,0.5]];portConstraint=eastwest;" parent="zkfFHV4jXpPFQw0GAbJ--6" vertex="1">
          <mxGeometry y="142" width="500" height="26" as="geometry" />
        </mxCell>
        <mxCell id="9LY999Uh6w9vxLKpFxIS-37" value="&lt;p style=&quot;&quot; class=&quot;MsoNormal&quot;&gt;&amp;nbsp;+&lt;span lang=&quot;EN-US&quot;&gt; &lt;/span&gt;&lt;span lang=&quot;EN-US&quot;&gt;bool LogIn(string login)&lt;/span&gt;&lt;br&gt;&lt;/p&gt;" style="text;html=1;strokeColor=none;fillColor=none;align=left;verticalAlign=middle;whiteSpace=wrap;rounded=0;" parent="zkfFHV4jXpPFQw0GAbJ--6" vertex="1">
          <mxGeometry y="168" width="500" height="30" as="geometry" />
        </mxCell>
        <mxCell id="9LY999Uh6w9vxLKpFxIS-38" value="&lt;p class=&quot;MsoNormal&quot;&gt;&amp;nbsp;+&lt;span lang=&quot;EN-US&quot;&gt; &lt;/span&gt;&lt;span lang=&quot;EN-US&quot;&gt;void LogOut()&lt;/span&gt;&lt;br&gt;&lt;/p&gt;" style="text;html=1;strokeColor=none;fillColor=none;align=left;verticalAlign=middle;whiteSpace=wrap;rounded=0;" parent="zkfFHV4jXpPFQw0GAbJ--6" vertex="1">
          <mxGeometry y="198" width="500" height="30" as="geometry" />
        </mxCell>
        <mxCell id="3G__BnJn2h25DO157lt7-0" value="+ &lt;span lang=&quot;EN-US&quot;&gt;bool&lt;/span&gt;&lt;span lang=&quot;EN-US&quot;&gt; &lt;/span&gt;&lt;span lang=&quot;EN-US&quot;&gt;SwitchUser&lt;/span&gt;&lt;span&gt;(&lt;/span&gt;&lt;span lang=&quot;EN-US&quot;&gt;string&lt;/span&gt;&lt;span lang=&quot;EN-US&quot;&gt;&amp;nbsp;&lt;/span&gt;login)" style="text;strokeColor=none;fillColor=none;align=left;verticalAlign=top;spacingLeft=4;spacingRight=4;overflow=hidden;rotatable=0;points=[[0,0.5],[1,0.5]];portConstraint=eastwest;whiteSpace=wrap;html=1;" parent="zkfFHV4jXpPFQw0GAbJ--6" vertex="1">
          <mxGeometry y="228" width="500" height="26" as="geometry" />
        </mxCell>
        <mxCell id="zkfFHV4jXpPFQw0GAbJ--17" value="interface&#xa;IDBRequestSystem" style="swimlane;fontStyle=0;align=center;verticalAlign=top;childLayout=stackLayout;horizontal=1;startSize=40;horizontalStack=0;resizeParent=1;resizeLast=0;collapsible=1;marginBottom=0;rounded=0;shadow=0;strokeWidth=1;fillColor=#f8cecc;strokeColor=#b85450;" parent="WIyWlLk6GJQsqaUBKTNV-1" vertex="1">
          <mxGeometry x="660" y="1590" width="340" height="770" as="geometry">
            <mxRectangle x="550" y="140" width="160" height="26" as="alternateBounds" />
          </mxGeometry>
        </mxCell>
        <mxCell id="zkfFHV4jXpPFQw0GAbJ--23" value="" style="line;html=1;strokeWidth=1;align=left;verticalAlign=middle;spacingTop=-1;spacingLeft=3;spacingRight=3;rotatable=0;labelPosition=right;points=[];portConstraint=eastwest;" parent="zkfFHV4jXpPFQw0GAbJ--17" vertex="1">
          <mxGeometry y="40" width="340" height="8" as="geometry" />
        </mxCell>
        <mxCell id="zkfFHV4jXpPFQw0GAbJ--20" value="+ AddProduct(Product prod) : bool" style="text;align=left;verticalAlign=top;spacingLeft=4;spacingRight=4;overflow=hidden;rotatable=0;points=[[0,0.5],[1,0.5]];portConstraint=eastwest;rounded=0;shadow=0;html=1;" parent="zkfFHV4jXpPFQw0GAbJ--17" vertex="1">
          <mxGeometry y="48" width="340" height="26" as="geometry" />
        </mxCell>
        <mxCell id="9LY999Uh6w9vxLKpFxIS-7" value="&lt;p style=&quot;&quot; class=&quot;MsoListParagraph&quot;&gt;+ DeleteProductByGuid&lt;span lang=&quot;RU&quot;&gt;(Guid id) : bool&lt;/span&gt;&lt;/p&gt;" style="text;html=1;strokeColor=none;fillColor=none;align=left;verticalAlign=middle;whiteSpace=wrap;rounded=0;" parent="zkfFHV4jXpPFQw0GAbJ--17" vertex="1">
          <mxGeometry y="74" width="340" height="30" as="geometry" />
        </mxCell>
        <mxCell id="q-Pe_3P3AUVw9OGpoJnZ-0" value="&lt;p style=&quot;margin-top:12.0pt;mso-add-space:auto&quot; class=&quot;MsoListParagraph&quot;&gt;+ DeleteProductByName(string name) : bool&lt;/p&gt;" style="text;html=1;strokeColor=none;fillColor=none;align=left;verticalAlign=middle;whiteSpace=wrap;rounded=0;" parent="zkfFHV4jXpPFQw0GAbJ--17" vertex="1">
          <mxGeometry y="104" width="340" height="30" as="geometry" />
        </mxCell>
        <mxCell id="9LY999Uh6w9vxLKpFxIS-6" value="&lt;p style=&quot;margin-top:12.0pt;mso-add-space:auto&quot; class=&quot;MsoListParagraph&quot;&gt;+ ChangeProductByGuid(Guid id, Product prod) : bool&lt;/p&gt;" style="text;strokeColor=none;fillColor=none;align=left;verticalAlign=middle;whiteSpace=wrap;rounded=0;html=1;" parent="zkfFHV4jXpPFQw0GAbJ--17" vertex="1">
          <mxGeometry y="134" width="340" height="30" as="geometry" />
        </mxCell>
        <mxCell id="q-Pe_3P3AUVw9OGpoJnZ-3" value="+Â ChangeProductByName(string name, Product prod) :Â bool" style="text;strokeColor=none;fillColor=none;align=left;verticalAlign=top;spacingLeft=4;spacingRight=4;overflow=hidden;rotatable=0;points=[[0,0.5],[1,0.5]];portConstraint=eastwest;" parent="zkfFHV4jXpPFQw0GAbJ--17" vertex="1">
          <mxGeometry y="164" width="340" height="26" as="geometry" />
        </mxCell>
        <mxCell id="9LY999Uh6w9vxLKpFxIS-9" value="+ GetAllProducts()&amp;nbsp; : List&amp;lt;Product&amp;gt;" style="text;strokeColor=none;fillColor=none;align=left;verticalAlign=middle;whiteSpace=wrap;rounded=0;html=1;" parent="zkfFHV4jXpPFQw0GAbJ--17" vertex="1">
          <mxGeometry y="190" width="340" height="30" as="geometry" />
        </mxCell>
        <mxCell id="9LY999Uh6w9vxLKpFxIS-10" value="+ GetStockProduct() : List&amp;lt;Product&amp;gt;" style="text;strokeColor=none;fillColor=none;align=left;verticalAlign=middle;whiteSpace=wrap;rounded=0;html=1;" parent="zkfFHV4jXpPFQw0GAbJ--17" vertex="1">
          <mxGeometry y="220" width="340" height="30" as="geometry" />
        </mxCell>
        <mxCell id="9LY999Uh6w9vxLKpFxIS-11" value="&lt;div style=&quot;&quot;&gt;&lt;span style=&quot;background-color: initial;&quot;&gt;+&amp;nbsp;&lt;/span&gt;&lt;span style=&quot;background-color: initial;&quot;&gt;GetProductByGuid(Guid id) : Product&lt;/span&gt;&lt;/div&gt;&lt;p style=&quot;margin-left:0cm;mso-add-space:auto&quot; class=&quot;MsoListParagraph&quot;&gt;&lt;span lang=&quot;RU&quot;&gt;&lt;/span&gt;&lt;/p&gt;" style="text;html=1;strokeColor=none;fillColor=none;align=left;verticalAlign=middle;whiteSpace=wrap;rounded=0;" parent="zkfFHV4jXpPFQw0GAbJ--17" vertex="1">
          <mxGeometry y="250" width="340" height="30" as="geometry" />
        </mxCell>
        <mxCell id="q-Pe_3P3AUVw9OGpoJnZ-5" value="+Â GetProductByName(string name) : Product" style="text;strokeColor=none;fillColor=none;align=left;verticalAlign=top;spacingLeft=4;spacingRight=4;overflow=hidden;rotatable=0;points=[[0,0.5],[1,0.5]];portConstraint=eastwest;" parent="zkfFHV4jXpPFQw0GAbJ--17" vertex="1">
          <mxGeometry y="280" width="340" height="26" as="geometry" />
        </mxCell>
        <mxCell id="9LY999Uh6w9vxLKpFxIS-13" value="+ GetCustomerProductByLogin(string name)&amp;nbsp;:&amp;nbsp;List&amp;lt;Product&amp;gt;" style="text;strokeColor=none;fillColor=none;align=left;verticalAlign=middle;whiteSpace=wrap;rounded=0;html=1;" parent="zkfFHV4jXpPFQw0GAbJ--17" vertex="1">
          <mxGeometry y="306" width="340" height="30" as="geometry" />
        </mxCell>
        <mxCell id="9LY999Uh6w9vxLKpFxIS-14" value="+&amp;nbsp;GetSellerProductByLogin(string name)&amp;nbsp; : List &amp;lt;Product&amp;gt;" style="text;strokeColor=none;fillColor=none;align=left;verticalAlign=middle;whiteSpace=wrap;rounded=0;html=1;" parent="zkfFHV4jXpPFQw0GAbJ--17" vertex="1">
          <mxGeometry y="336" width="340" height="30" as="geometry" />
        </mxCell>
        <mxCell id="vty6X6v03ZXn0SeuVIZ7-5" value="." style="text;html=1;strokeColor=none;fillColor=none;align=center;verticalAlign=middle;whiteSpace=wrap;rounded=0;" parent="zkfFHV4jXpPFQw0GAbJ--17" vertex="1">
          <mxGeometry y="366" width="340" height="30" as="geometry" />
        </mxCell>
        <mxCell id="vty6X6v03ZXn0SeuVIZ7-0" value="+ AddOrder(Order order) : bool" style="text;html=1;strokeColor=none;fillColor=none;align=left;verticalAlign=middle;whiteSpace=wrap;rounded=0;" parent="zkfFHV4jXpPFQw0GAbJ--17" vertex="1">
          <mxGeometry y="396" width="340" height="30" as="geometry" />
        </mxCell>
        <mxCell id="vty6X6v03ZXn0SeuVIZ7-1" value="+ DeleteOrder(Guid id) : bool" style="text;html=1;strokeColor=none;fillColor=none;align=left;verticalAlign=middle;whiteSpace=wrap;rounded=0;" parent="zkfFHV4jXpPFQw0GAbJ--17" vertex="1">
          <mxGeometry y="426" width="340" height="30" as="geometry" />
        </mxCell>
        <mxCell id="vty6X6v03ZXn0SeuVIZ7-2" value="+ ChangeOrder(Guid id, Order order) : bool" style="text;html=1;strokeColor=none;fillColor=none;align=left;verticalAlign=middle;whiteSpace=wrap;rounded=0;" parent="zkfFHV4jXpPFQw0GAbJ--17" vertex="1">
          <mxGeometry y="456" width="340" height="30" as="geometry" />
        </mxCell>
        <mxCell id="vty6X6v03ZXn0SeuVIZ7-3" value="&lt;p style=&quot;margin-top:12.0pt;mso-add-space:auto&quot; class=&quot;MsoListParagraph&quot;&gt;+ GetOrderByLogin(string login) : List&amp;lt;Order&amp;gt;&lt;/p&gt;" style="text;html=1;strokeColor=none;fillColor=none;align=left;verticalAlign=middle;whiteSpace=wrap;rounded=0;" parent="zkfFHV4jXpPFQw0GAbJ--17" vertex="1">
          <mxGeometry y="486" width="340" height="30" as="geometry" />
        </mxCell>
        <mxCell id="vty6X6v03ZXn0SeuVIZ7-6" value="." style="text;html=1;strokeColor=none;fillColor=none;align=center;verticalAlign=middle;whiteSpace=wrap;rounded=0;" parent="zkfFHV4jXpPFQw0GAbJ--17" vertex="1">
          <mxGeometry y="516" width="340" height="30" as="geometry" />
        </mxCell>
        <mxCell id="9LY999Uh6w9vxLKpFxIS-15" value="+&amp;nbsp;AddUser(User user)&amp;nbsp;&amp;nbsp;: bool" style="text;strokeColor=none;fillColor=none;align=left;verticalAlign=middle;whiteSpace=wrap;rounded=0;html=1;" parent="zkfFHV4jXpPFQw0GAbJ--17" vertex="1">
          <mxGeometry y="546" width="340" height="30" as="geometry" />
        </mxCell>
        <mxCell id="q-Pe_3P3AUVw9OGpoJnZ-6" value="+&amp;nbsp;DeleteUser(srtring login) : bool" style="text;strokeColor=none;fillColor=none;align=left;verticalAlign=middle;whiteSpace=wrap;rounded=0;html=1;" parent="zkfFHV4jXpPFQw0GAbJ--17" vertex="1">
          <mxGeometry y="576" width="340" height="30" as="geometry" />
        </mxCell>
        <mxCell id="q-Pe_3P3AUVw9OGpoJnZ-7" value="+Â ChangeUser(stringÂ login,User user)Â Â : bool" style="text;strokeColor=none;fillColor=none;align=left;verticalAlign=top;spacingLeft=4;spacingRight=4;overflow=hidden;rotatable=0;points=[[0,0.5],[1,0.5]];portConstraint=eastwest;" parent="zkfFHV4jXpPFQw0GAbJ--17" vertex="1">
          <mxGeometry y="606" width="340" height="26" as="geometry" />
        </mxCell>
        <mxCell id="9LY999Uh6w9vxLKpFxIS-19" value="+&amp;nbsp;GetUsersByRoles(Role role) : List&amp;lt;User&amp;gt;" style="text;strokeColor=none;fillColor=none;align=left;verticalAlign=middle;whiteSpace=wrap;rounded=0;html=1;" parent="zkfFHV4jXpPFQw0GAbJ--17" vertex="1">
          <mxGeometry y="632" width="340" height="30" as="geometry" />
        </mxCell>
        <mxCell id="9LY999Uh6w9vxLKpFxIS-20" value="+&amp;nbsp;GetAllUsers()&amp;nbsp;: List&amp;lt;User&amp;gt;" style="text;strokeColor=none;fillColor=none;align=left;verticalAlign=middle;rounded=0;whiteSpace=wrap;html=1;" parent="zkfFHV4jXpPFQw0GAbJ--17" vertex="1">
          <mxGeometry y="662" width="340" height="30" as="geometry" />
        </mxCell>
        <mxCell id="9LY999Uh6w9vxLKpFxIS-21" value="+ GetCertainUser(string login)&amp;nbsp;: User" style="text;strokeColor=none;fillColor=none;align=left;verticalAlign=middle;rounded=0;whiteSpace=wrap;html=1;" parent="zkfFHV4jXpPFQw0GAbJ--17" vertex="1">
          <mxGeometry y="692" width="340" height="30" as="geometry" />
        </mxCell>
        <mxCell id="9LY999Uh6w9vxLKpFxIS-27" value="+&amp;nbsp;ContainsUser(string&amp;nbsp;login) : bool" style="text;align=left;verticalAlign=middle;resizable=0;points=[];autosize=1;strokeColor=none;fillColor=none;html=1;" parent="zkfFHV4jXpPFQw0GAbJ--17" vertex="1">
          <mxGeometry y="722" width="340" height="30" as="geometry" />
        </mxCell>
        <mxCell id="EUTnSYSas2Rt2yITV2WA-0" value="Product" style="swimlane;fontStyle=0;childLayout=stackLayout;horizontal=1;startSize=26;fillColor=#e1d5e7;horizontalStack=0;resizeParent=1;resizeParentMax=0;resizeLast=0;collapsible=1;marginBottom=0;whiteSpace=wrap;html=1;strokeColor=#9673a6;" parent="WIyWlLk6GJQsqaUBKTNV-1" vertex="1">
          <mxGeometry x="120" y="1220" width="140" height="164" as="geometry" />
        </mxCell>
        <mxCell id="EUTnSYSas2Rt2yITV2WA-1" value="+Id : Guid" style="text;strokeColor=none;fillColor=none;align=left;verticalAlign=top;spacingLeft=4;spacingRight=4;overflow=hidden;rotatable=0;points=[[0,0.5],[1,0.5]];portConstraint=eastwest;whiteSpace=wrap;html=1;" parent="EUTnSYSas2Rt2yITV2WA-0" vertex="1">
          <mxGeometry y="26" width="140" height="26" as="geometry" />
        </mxCell>
        <mxCell id="EUTnSYSas2Rt2yITV2WA-2" value="+ Name: string" style="text;strokeColor=none;fillColor=none;align=left;verticalAlign=top;spacingLeft=4;spacingRight=4;overflow=hidden;rotatable=0;points=[[0,0.5],[1,0.5]];portConstraint=eastwest;whiteSpace=wrap;html=1;" parent="EUTnSYSas2Rt2yITV2WA-0" vertex="1">
          <mxGeometry y="52" width="140" height="26" as="geometry" />
        </mxCell>
        <mxCell id="EUTnSYSas2Rt2yITV2WA-3" value="&lt;div&gt;+ Manufacturer : string&lt;br&gt;&lt;/div&gt;" style="text;html=1;strokeColor=none;fillColor=none;align=left;verticalAlign=middle;whiteSpace=wrap;rounded=0;" parent="EUTnSYSas2Rt2yITV2WA-0" vertex="1">
          <mxGeometry y="78" width="140" height="30" as="geometry" />
        </mxCell>
        <mxCell id="EUTnSYSas2Rt2yITV2WA-4" value="&amp;nbsp;+ InStock : bool" style="text;html=1;strokeColor=none;fillColor=none;align=left;verticalAlign=middle;whiteSpace=wrap;rounded=0;" parent="EUTnSYSas2Rt2yITV2WA-0" vertex="1">
          <mxGeometry y="108" width="140" height="30" as="geometry" />
        </mxCell>
        <mxCell id="EUTnSYSas2Rt2yITV2WA-5" value="&lt;div&gt;+ Price : decimal&lt;/div&gt;" style="text;strokeColor=none;fillColor=none;align=left;verticalAlign=top;spacingLeft=4;spacingRight=4;overflow=hidden;rotatable=0;points=[[0,0.5],[1,0.5]];portConstraint=eastwest;whiteSpace=wrap;html=1;" parent="EUTnSYSas2Rt2yITV2WA-0" vertex="1">
          <mxGeometry y="138" width="140" height="26" as="geometry" />
        </mxCell>
        <mxCell id="EUTnSYSas2Rt2yITV2WA-6" value="Car" style="swimlane;fontStyle=0;childLayout=stackLayout;horizontal=1;startSize=26;fillColor=#e1d5e7;horizontalStack=0;resizeParent=1;resizeParentMax=0;resizeLast=0;collapsible=1;marginBottom=0;whiteSpace=wrap;html=1;strokeColor=#9673a6;" parent="WIyWlLk6GJQsqaUBKTNV-1" vertex="1">
          <mxGeometry x="-260" y="1566" width="200" height="340" as="geometry" />
        </mxCell>
        <mxCell id="EUTnSYSas2Rt2yITV2WA-7" value="&lt;br&gt;&lt;font style=&quot;font-size: 12px;&quot;&gt;+ model: enum&lt;/font&gt;&lt;font style=&quot;font-size: 12px;&quot;&gt;&lt;br&gt;&lt;/font&gt;&lt;p style=&quot;line-height: 108%; margin-bottom: 0.28cm&quot;&gt;&lt;font style=&quot;font-size: 12px;&quot;&gt;&lt;span lang=&quot;en-US&quot;&gt;+ engine : enum&lt;/span&gt;&lt;/font&gt;&lt;/p&gt;&lt;font style=&quot;font-size: 12px;&quot;&gt;&lt;/font&gt;&lt;p style=&quot;line-height: 108%; margin-bottom: 0.28cm&quot;&gt;&lt;font style=&quot;font-size: 12px;&quot;&gt;&lt;span lang=&quot;en-US&quot;&gt;+ gearbox : enum&lt;/span&gt;&lt;/font&gt;&lt;/p&gt;&lt;font style=&quot;font-size: 12px;&quot;&gt;&lt;/font&gt;&lt;p style=&quot;line-height: 108%; margin-bottom: 0.28cm&quot;&gt;&lt;font style=&quot;font-size: 12px;&quot;&gt;&lt;span lang=&quot;en-US&quot;&gt;+ FuelTankCapacity: float&lt;/span&gt;&lt;/font&gt;&lt;/p&gt;&lt;font style=&quot;font-size: 12px;&quot;&gt;&lt;span lang=&quot;en-US&quot;&gt;+&lt;/span&gt;&lt;/font&gt;&lt;font style=&quot;font-size: 12px;&quot;&gt;&lt;span lang=&quot;en-US&quot;&gt;ManufactureDate : DateTime&lt;/span&gt;&lt;/font&gt;&lt;font style=&quot;font-size: 12px;&quot;&gt;&lt;br&gt;&lt;/font&gt;&lt;p style=&quot;line-height: 108%; margin-bottom: 0.28cm&quot;&gt;&lt;font style=&quot;font-size: 12px;&quot;&gt;&lt;span lang=&quot;en-US&quot;&gt;+ Color : enum&lt;/span&gt;&lt;/font&gt;&lt;/p&gt;&lt;font style=&quot;font-size: 12px;&quot;&gt;&lt;/font&gt;&lt;p style=&quot;line-height: 108%; margin-bottom: 0.28cm&quot;&gt;&lt;font style=&quot;font-size: 12px;&quot;&gt;&lt;span lang=&quot;en-US&quot;&gt;+ WheelDrive : enum&lt;/span&gt;&lt;/font&gt;&lt;/p&gt;&lt;font style=&quot;font-size: 12px;&quot;&gt;&lt;/font&gt;&lt;p style=&quot;line-height: 108%; margin-bottom: 0.28cm&quot;&gt;&lt;font style=&quot;font-size: 12px;&quot;&gt;&lt;span lang=&quot;en-US&quot;&gt;+ Weight : float&lt;/span&gt;&lt;/font&gt;&lt;/p&gt;&lt;font style=&quot;font-size: 12px;&quot;&gt;&lt;/font&gt;&lt;p style=&quot;line-height: 108%; margin-bottom: 0.28cm&quot;&gt;&lt;font style=&quot;font-size: 12px;&quot;&gt;&lt;span lang=&quot;en-US&quot;&gt;+ Power : float&lt;/span&gt;&lt;/font&gt;&lt;/p&gt;&lt;font style=&quot;font-size: 12px;&quot;&gt;&lt;/font&gt;&lt;p style=&quot;line-height: 108%; margin-bottom: 0.28cm&quot;&gt;&lt;font style=&quot;font-size: 12px;&quot;&gt;&lt;span lang=&quot;en-US&quot;&gt;+ Torque : float&lt;/span&gt;&lt;/font&gt;&lt;/p&gt;&lt;font style=&quot;font-size: 12px;&quot;&gt;&lt;/font&gt;&lt;p style=&quot;line-height: 108%; margin-bottom: 0.28cm&quot;&gt;&lt;font style=&quot;font-size: 12px;&quot;&gt;&lt;span lang=&quot;en-US&quot;&gt;+ FuelConsumptionCity : float&lt;/span&gt;&lt;/font&gt;&lt;/p&gt;&lt;font style=&quot;font-size: 12px;&quot;&gt;&lt;/font&gt;&lt;p style=&quot;line-height: 108%; margin-bottom: 0.28cm&quot;&gt;&lt;font style=&quot;font-size: 12px;&quot;&gt;&lt;span lang=&quot;en-US&quot;&gt;+ FuelConsumptionHighway : float&lt;/span&gt;&lt;/font&gt;&lt;/p&gt;&lt;font style=&quot;font-size: 12px;&quot;&gt;&lt;br&gt;&lt;br&gt;&lt;/font&gt;" style="text;strokeColor=none;fillColor=none;align=left;verticalAlign=top;spacingLeft=4;spacingRight=4;overflow=hidden;rotatable=0;points=[[0,0.5],[1,0.5]];portConstraint=eastwest;whiteSpace=wrap;html=1;" parent="EUTnSYSas2Rt2yITV2WA-6" vertex="1">
          <mxGeometry y="26" width="200" height="314" as="geometry" />
        </mxCell>
        <mxCell id="EUTnSYSas2Rt2yITV2WA-8" value="" style="endArrow=classic;html=1;rounded=0;" parent="WIyWlLk6GJQsqaUBKTNV-1" source="EUTnSYSas2Rt2yITV2WA-6" target="EUTnSYSas2Rt2yITV2WA-0" edge="1">
          <mxGeometry width="50" height="50" relative="1" as="geometry">
            <mxPoint x="200" y="1990" as="sourcePoint" />
            <mxPoint x="130" y="1960" as="targetPoint" />
          </mxGeometry>
        </mxCell>
        <mxCell id="EUTnSYSas2Rt2yITV2WA-9" value="Tires" style="swimlane;fontStyle=0;childLayout=stackLayout;horizontal=1;startSize=26;fillColor=#e1d5e7;horizontalStack=0;resizeParent=1;resizeParentMax=0;resizeLast=0;collapsible=1;marginBottom=0;whiteSpace=wrap;html=1;align=center;strokeColor=#9673a6;" parent="WIyWlLk6GJQsqaUBKTNV-1" vertex="1">
          <mxGeometry x="-270" y="1318" width="200" height="210" as="geometry" />
        </mxCell>
        <mxCell id="EUTnSYSas2Rt2yITV2WA-10" value="&lt;font style=&quot;font-size: 12px;&quot; face=&quot;Times New Roman, serif&quot;&gt;+ &lt;/font&gt;&lt;font style=&quot;font-size: 12px;&quot; face=&quot;Times New Roman, serif&quot;&gt;Season : enum&lt;/font&gt;&lt;br&gt;&lt;p style=&quot;line-height: 108%; margin-bottom: 0.28cm&quot;&gt;&lt;font style=&quot;font-size: 12px;&quot; face=&quot;Times New Roman, serif&quot;&gt;&lt;span lang=&quot;en-US&quot;&gt;+ Width : float&lt;/span&gt;&lt;/font&gt;&lt;/p&gt;&lt;p style=&quot;line-height: 108%; margin-bottom: 0.28cm&quot;&gt;&lt;font style=&quot;font-size: 12px;&quot; face=&quot;Times New Roman, serif&quot;&gt;&lt;span lang=&quot;en-US&quot;&gt;+&lt;/span&gt;&lt;/font&gt;&lt;font style=&quot;font-size: 12px;&quot;&gt;&lt;span lang=&quot;en-US&quot;&gt;&lt;/span&gt;&lt;font style=&quot;font-size: 12px;&quot; face=&quot;Times New Roman, serif&quot;&gt;&lt;span lang=&quot;en-US&quot;&gt;ProfileHeight : float&lt;/span&gt;&lt;/font&gt;&lt;/font&gt;&lt;/p&gt;&lt;p style=&quot;line-height: 108%; margin-bottom: 0.28cm&quot;&gt;&lt;font style=&quot;font-size: 12px;&quot; face=&quot;Times New Roman, serif&quot;&gt;&lt;span lang=&quot;en-US&quot;&gt;+ ConstructionType : char&lt;/span&gt;&lt;/font&gt;&lt;/p&gt;&lt;p style=&quot;line-height: 108%; margin-bottom: 0.28cm&quot;&gt;&lt;font style=&quot;font-size: 12px;&quot; face=&quot;Times New Roman, serif&quot;&gt;&lt;span lang=&quot;en-US&quot;&gt;+ RimDiameter : float &lt;/span&gt;&lt;/font&gt;&lt;br&gt;&lt;/p&gt;&lt;p style=&quot;line-height: 108%; margin-bottom: 0.28cm&quot;&gt;&lt;font style=&quot;font-size: 12px;&quot; face=&quot;Times New Roman, serif&quot;&gt;&lt;span lang=&quot;en-US&quot;&gt;+ LoadIndex : float&lt;/span&gt;&lt;/font&gt;&lt;/p&gt;&lt;p style=&quot;line-height: 108%; margin-bottom: 0.28cm&quot;&gt;&lt;font style=&quot;font-size: 12px;&quot; face=&quot;Times New Roman, serif&quot;&gt;&lt;span lang=&quot;en-US&quot;&gt;+ SpeedIndex : char&lt;/span&gt;&lt;/font&gt;&lt;/p&gt;&lt;br&gt;" style="text;strokeColor=none;fillColor=none;align=left;verticalAlign=top;spacingLeft=4;spacingRight=4;overflow=hidden;rotatable=0;points=[[0,0.5],[1,0.5]];portConstraint=eastwest;whiteSpace=wrap;html=1;" parent="EUTnSYSas2Rt2yITV2WA-9" vertex="1">
          <mxGeometry y="26" width="200" height="184" as="geometry" />
        </mxCell>
        <mxCell id="EUTnSYSas2Rt2yITV2WA-11" value="" style="endArrow=classic;html=1;rounded=0;" parent="WIyWlLk6GJQsqaUBKTNV-1" source="EUTnSYSas2Rt2yITV2WA-9" target="EUTnSYSas2Rt2yITV2WA-0" edge="1">
          <mxGeometry width="50" height="50" relative="1" as="geometry">
            <mxPoint x="340" y="1970" as="sourcePoint" />
            <mxPoint x="390" y="1920" as="targetPoint" />
          </mxGeometry>
        </mxCell>
        <mxCell id="EUTnSYSas2Rt2yITV2WA-12" value="EngineOil" style="swimlane;fontStyle=0;childLayout=stackLayout;horizontal=1;startSize=26;fillColor=#e1d5e7;horizontalStack=0;resizeParent=1;resizeParentMax=0;resizeLast=0;collapsible=1;marginBottom=0;whiteSpace=wrap;html=1;align=center;strokeColor=#9673a6;" parent="WIyWlLk6GJQsqaUBKTNV-1" vertex="1">
          <mxGeometry x="-260" y="1160" width="200" height="130" as="geometry" />
        </mxCell>
        <mxCell id="EUTnSYSas2Rt2yITV2WA-13" value="&lt;font style=&quot;font-size: 12px;&quot; face=&quot;Times New Roman, serif&quot;&gt;+ &lt;/font&gt;&lt;font style=&quot;font-size: 12px;&quot; face=&quot;Times New Roman, serif&quot;&gt;Composition : string&lt;/font&gt;&lt;br&gt;&lt;p style=&quot;line-height: 108%; margin-bottom: 0.28cm&quot;&gt;&lt;font style=&quot;font-size: 12px;&quot; face=&quot;Times New Roman, serif&quot;&gt;&lt;span lang=&quot;en-US&quot;&gt;+ Viscosity : string&lt;/span&gt;&lt;/font&gt;&lt;/p&gt;&lt;p style=&quot;line-height: 108%; margin-bottom: 0.28cm&quot;&gt;&lt;font style=&quot;font-size: 12px;&quot; face=&quot;Times New Roman, serif&quot;&gt;&lt;span lang=&quot;en-US&quot;&gt;+ EngineType : enum&lt;/span&gt;&lt;/font&gt;&lt;/p&gt;&lt;p style=&quot;line-height: 108%; margin-bottom: 0.28cm&quot;&gt;&lt;font style=&quot;font-size: 12px;&quot; face=&quot;Times New Roman, serif&quot;&gt;&lt;span lang=&quot;en-US&quot;&gt;+&lt;/span&gt;&lt;/font&gt;&lt;font style=&quot;font-size: 12px;&quot; face=&quot;Times New Roman, serif&quot;&gt; Volume &lt;/font&gt;&lt;font style=&quot;font-size: 12px;&quot; face=&quot;Times New Roman, serif&quot;&gt;&lt;span lang=&quot;en-US&quot;&gt;: float&lt;/span&gt;&lt;/font&gt;&lt;/p&gt;&lt;br&gt;&lt;p style=&quot;line-height: 108%; margin-bottom: 0.28cm&quot;&gt;&lt;font style=&quot;font-size: 12px;&quot;&gt;&lt;br&gt;&lt;/font&gt;&lt;br&gt;&lt;font style=&quot;font-size: 12px;&quot;&gt;&lt;br&gt;&lt;/font&gt;&lt;br&gt;&lt;br&gt;&lt;/p&gt;&lt;br&gt;" style="text;strokeColor=none;fillColor=none;align=left;verticalAlign=top;spacingLeft=4;spacingRight=4;overflow=hidden;rotatable=0;points=[[0,0.5],[1,0.5]];portConstraint=eastwest;whiteSpace=wrap;html=1;" parent="EUTnSYSas2Rt2yITV2WA-12" vertex="1">
          <mxGeometry y="26" width="200" height="104" as="geometry" />
        </mxCell>
        <mxCell id="EUTnSYSas2Rt2yITV2WA-14" value="" style="endArrow=classic;html=1;rounded=0;" parent="WIyWlLk6GJQsqaUBKTNV-1" source="EUTnSYSas2Rt2yITV2WA-12" target="EUTnSYSas2Rt2yITV2WA-0" edge="1">
          <mxGeometry width="50" height="50" relative="1" as="geometry">
            <mxPoint x="420" y="1930" as="sourcePoint" />
            <mxPoint x="470" y="1880" as="targetPoint" />
          </mxGeometry>
        </mxCell>
        <mxCell id="EUTnSYSas2Rt2yITV2WA-15" value="Order" style="swimlane;fontStyle=0;childLayout=stackLayout;horizontal=1;startSize=26;fillColor=#dae8fc;horizontalStack=0;resizeParent=1;resizeParentMax=0;resizeLast=0;collapsible=1;marginBottom=0;whiteSpace=wrap;html=1;strokeColor=#6c8ebf;" parent="WIyWlLk6GJQsqaUBKTNV-1" vertex="1">
          <mxGeometry x="1210" y="1680" width="170" height="234" as="geometry" />
        </mxCell>
        <mxCell id="EUTnSYSas2Rt2yITV2WA-16" value="&lt;font style=&quot;font-size: 12px;&quot; face=&quot;Times New Roman, serif&quot;&gt;+&lt;/font&gt;&lt;font style=&quot;font-size: 12px;&quot; face=&quot;Times New Roman, serif&quot;&gt;Id : Guid&lt;/font&gt;&lt;br&gt;&lt;p style=&quot;line-height: 108%; margin-bottom: 0.28cm&quot;&gt;&lt;font style=&quot;font-size: 12px;&quot; face=&quot;Times New Roman, serif&quot;&gt;+ CreatorUserNane :&amp;nbsp;&lt;/font&gt;&lt;span style=&quot;font-family: &amp;quot;Times New Roman&amp;quot;, serif; background-color: transparent;&quot;&gt;string&lt;/span&gt;&lt;/p&gt;&lt;p style=&quot;line-height: 108%; margin-bottom: 0.28cm&quot;&gt;&lt;font style=&quot;font-size: 12px;&quot; face=&quot;Times New Roman, serif&quot;&gt;&lt;span lang=&quot;en-US&quot;&gt;+ BuyerFullName : string&lt;/span&gt;&lt;/font&gt;&lt;/p&gt;&lt;p style=&quot;line-height: 108%; margin-bottom: 0.28cm&quot;&gt;&lt;font style=&quot;font-size: 12px;&quot; face=&quot;Times New Roman, serif&quot;&gt;&lt;span lang=&quot;en-US&quot;&gt;+ CreationTime : DateTime&lt;/span&gt;&lt;/font&gt;&lt;/p&gt;&lt;p style=&quot;line-height: 108%; margin-bottom: 0.28cm&quot;&gt;&lt;font style=&quot;font-size: 12px;&quot; face=&quot;Times New Roman, serif&quot;&gt;&lt;span lang=&quot;en-US&quot;&gt;+ CancellationTime : DateTime&lt;/span&gt;&lt;/font&gt;&lt;/p&gt;&lt;p style=&quot;line-height: 108%; margin-bottom: 0.28cm&quot;&gt;&lt;font style=&quot;font-size: 12px;&quot; face=&quot;Times New Roman, serif&quot;&gt;&lt;span lang=&quot;en-US&quot;&gt;+ Bucket : List&amp;lt;Guid&amp;gt;&lt;/span&gt;&lt;/font&gt;&lt;/p&gt;&lt;p style=&quot;line-height: 108%; margin-bottom: 0.28cm&quot;&gt;&lt;font style=&quot;font-size: 12px;&quot; face=&quot;Times New Roman, serif&quot;&gt;&lt;span lang=&quot;en-US&quot;&gt;+ State : enum&lt;/span&gt;&lt;/font&gt;&lt;/p&gt;" style="text;strokeColor=none;fillColor=none;align=left;verticalAlign=top;spacingLeft=4;spacingRight=4;overflow=hidden;rotatable=0;points=[[0,0.5],[1,0.5]];portConstraint=eastwest;whiteSpace=wrap;html=1;" parent="EUTnSYSas2Rt2yITV2WA-15" vertex="1">
          <mxGeometry y="26" width="170" height="174" as="geometry" />
        </mxCell>
        <mxCell id="Pdv8RPI2rqsOSWAISiew-9" value="" style="line;strokeWidth=1;fillColor=none;align=left;verticalAlign=middle;spacingTop=-1;spacingLeft=3;spacingRight=3;rotatable=0;labelPosition=right;points=[];portConstraint=eastwest;strokeColor=inherit;" parent="EUTnSYSas2Rt2yITV2WA-15" vertex="1">
          <mxGeometry y="200" width="170" height="8" as="geometry" />
        </mxCell>
        <mxCell id="Pdv8RPI2rqsOSWAISiew-10" value="+ GetBucketPrice() : decimal" style="text;strokeColor=none;fillColor=none;align=left;verticalAlign=top;spacingLeft=4;spacingRight=4;overflow=hidden;rotatable=0;points=[[0,0.5],[1,0.5]];portConstraint=eastwest;whiteSpace=wrap;html=1;" parent="EUTnSYSas2Rt2yITV2WA-15" vertex="1">
          <mxGeometry y="208" width="170" height="26" as="geometry" />
        </mxCell>
        <mxCell id="EUTnSYSas2Rt2yITV2WA-17" value="&lt;p style=&quot;margin:0px;margin-top:4px;text-align:center;&quot;&gt;&lt;font style=&quot;font-size: 12px;&quot;&gt;&lt;i&gt;&amp;lt;&amp;lt;Interface&amp;gt;&amp;gt;&lt;/i&gt;&lt;/font&gt;&lt;/p&gt;&lt;p style=&quot;margin:0px;margin-top:4px;text-align:center;&quot;&gt;&lt;font style=&quot;font-size: 12px;&quot;&gt;&lt;b&gt;User&lt;/b&gt;&lt;br&gt;&lt;/font&gt;&lt;/p&gt;&lt;hr size=&quot;1&quot;&gt;&lt;font style=&quot;font-size: 12px;&quot; face=&quot;Times New Roman, serif&quot;&gt;+ Login : string&lt;/font&gt;&lt;br&gt;&lt;p style=&quot;line-height: 108%; margin-bottom: 0.28cm&quot;&gt;&lt;font style=&quot;font-size: 12px;&quot; face=&quot;Times New Roman, serif&quot;&gt;&lt;span lang=&quot;en-US&quot;&gt;+ Password : string&lt;/span&gt;&lt;/font&gt;&lt;/p&gt;&lt;p style=&quot;line-height: 108%; margin-bottom: 0.28cm&quot;&gt;&lt;font style=&quot;font-size: 12px;&quot; face=&quot;Times New Roman, serif&quot;&gt;+ FullName : string&lt;/font&gt;&lt;/p&gt;&lt;p style=&quot;line-height: 108%; margin-bottom: 0.28cm&quot;&gt;&lt;font style=&quot;font-size: 12px;&quot; face=&quot;Times New Roman, serif&quot;&gt;&lt;span lang=&quot;en-US&quot;&gt;+ Role : enum&lt;/span&gt;&lt;/font&gt;&lt;/p&gt;&lt;p style=&quot;line-height: 108%; margin-bottom: 0.28cm&quot;&gt;&lt;font style=&quot;font-size: 12px;&quot; face=&quot;Times New Roman, serif&quot;&gt;&lt;span lang=&quot;en-US&quot;&gt;+ Bucket : List&amp;lt;Guid&amp;gt;&lt;/span&gt;&lt;/font&gt;&lt;/p&gt;&lt;p style=&quot;margin:0px;margin-left:4px;&quot;&gt;&lt;/p&gt;&lt;hr size=&quot;1&quot;&gt;&lt;p style=&quot;line-height: 108%; margin-bottom: 0.28cm&quot;&gt;&lt;font style=&quot;font-size: 12px;&quot;&gt;+ AddProductInBucket()&lt;/font&gt;&lt;/p&gt;&lt;font style=&quot;font-size: 12px;&quot;&gt;&lt;span lang=&quot;en-US&quot;&gt;+&amp;nbsp;DeleteProductInBucket()&lt;br&gt;&lt;/span&gt;&lt;/font&gt;&lt;font style=&quot;font-size: 12px;&quot;&gt;&lt;span lang=&quot;en-US&quot;&gt;+ CancelOrder()&lt;br&gt;&lt;/span&gt;&lt;/font&gt;+ CreateOrder()&lt;br&gt;&lt;p style=&quot;margin:0px;margin-left:4px;&quot;&gt;&lt;style type=&quot;text/css&quot;&gt;p { line-height: 115%; text-align: left; orphans: 2; widows: 2; margin-bottom: 0.25cm; direction: ltr; background: transparent }&lt;/style&gt;&lt;/p&gt;" style="verticalAlign=top;align=left;overflow=fill;fontSize=12;fontFamily=Helvetica;html=1;whiteSpace=wrap;fillColor=#d5e8d4;strokeColor=#82b366;" parent="WIyWlLk6GJQsqaUBKTNV-1" vertex="1">
          <mxGeometry x="1210" y="420" width="190" height="290" as="geometry" />
        </mxCell>
        <mxCell id="EUTnSYSas2Rt2yITV2WA-18" value="Customer" style="swimlane;fontStyle=1;align=center;verticalAlign=top;childLayout=stackLayout;horizontal=1;startSize=26;horizontalStack=0;resizeParent=1;resizeParentMax=0;resizeLast=0;collapsible=1;marginBottom=0;whiteSpace=wrap;html=1;fillColor=#d5e8d4;strokeColor=#82b366;" parent="WIyWlLk6GJQsqaUBKTNV-1" vertex="1">
          <mxGeometry x="960" y="200" width="160" height="90" as="geometry" />
        </mxCell>
        <mxCell id="EUTnSYSas2Rt2yITV2WA-19" value="" style="line;strokeWidth=1;fillColor=none;align=left;verticalAlign=middle;spacingTop=-1;spacingLeft=3;spacingRight=3;rotatable=0;labelPosition=right;points=[];portConstraint=eastwest;strokeColor=inherit;" parent="EUTnSYSas2Rt2yITV2WA-18" vertex="1">
          <mxGeometry y="26" width="160" height="8" as="geometry" />
        </mxCell>
        <mxCell id="EUTnSYSas2Rt2yITV2WA-20" value="&lt;font style=&quot;border-color: var(--border-color);&quot; face=&quot;Times New Roman, serif&quot;&gt;+&lt;/font&gt;&lt;font style=&quot;border-color: var(--border-color);&quot; face=&quot;Times New Roman, serif&quot;&gt;&amp;nbsp;override&lt;/font&gt;&lt;font style=&quot;border-color: var(--border-color);&quot; face=&quot;Times New Roman, serif&quot;&gt;&amp;nbsp;CreateOrder()&lt;/font&gt;&lt;br&gt;&lt;p style=&quot;line-height: 108%; margin-bottom: 0.28cm&quot;&gt;&lt;font style=&quot;font-size: 12px;&quot; face=&quot;Times New Roman, serif&quot;&gt;+&lt;/font&gt;&lt;font style=&quot;font-size: 12px;&quot; face=&quot;Times New Roman, serif&quot;&gt;&lt;span lang=&quot;en-US&quot;&gt; override&lt;/span&gt;&lt;/font&gt;&lt;font style=&quot;font-size: 12px;&quot; face=&quot;Times New Roman, serif&quot;&gt; CancelOrder()&lt;/font&gt;&lt;/p&gt;" style="text;strokeColor=none;fillColor=none;align=left;verticalAlign=top;spacingLeft=4;spacingRight=4;overflow=hidden;rotatable=0;points=[[0,0.5],[1,0.5]];portConstraint=eastwest;whiteSpace=wrap;html=1;" parent="EUTnSYSas2Rt2yITV2WA-18" vertex="1">
          <mxGeometry y="34" width="160" height="56" as="geometry" />
        </mxCell>
        <mxCell id="EUTnSYSas2Rt2yITV2WA-21" value="Seller" style="swimlane;fontStyle=1;align=center;verticalAlign=top;childLayout=stackLayout;horizontal=1;startSize=26;horizontalStack=0;resizeParent=1;resizeParentMax=0;resizeLast=0;collapsible=1;marginBottom=0;whiteSpace=wrap;html=1;fillColor=#d5e8d4;strokeColor=#82b366;" parent="WIyWlLk6GJQsqaUBKTNV-1" vertex="1">
          <mxGeometry x="1224" y="200" width="160" height="90" as="geometry" />
        </mxCell>
        <mxCell id="EUTnSYSas2Rt2yITV2WA-22" value="" style="line;strokeWidth=1;fillColor=none;align=left;verticalAlign=middle;spacingTop=-1;spacingLeft=3;spacingRight=3;rotatable=0;labelPosition=right;points=[];portConstraint=eastwest;strokeColor=inherit;" parent="EUTnSYSas2Rt2yITV2WA-21" vertex="1">
          <mxGeometry y="26" width="160" height="8" as="geometry" />
        </mxCell>
        <mxCell id="EUTnSYSas2Rt2yITV2WA-23" value="&lt;font style=&quot;border-color: var(--border-color);&quot; face=&quot;Times New Roman, serif&quot;&gt;+&lt;/font&gt;&lt;font style=&quot;border-color: var(--border-color);&quot; face=&quot;Times New Roman, serif&quot;&gt;&amp;nbsp;override&lt;/font&gt;&lt;font style=&quot;border-color: var(--border-color);&quot; face=&quot;Times New Roman, serif&quot;&gt;&amp;nbsp;CreateOrder()&lt;/font&gt;&lt;br&gt;&lt;p style=&quot;line-height: 108%; margin-bottom: 0.28cm&quot;&gt;&lt;font style=&quot;font-size: 12px;&quot; face=&quot;Times New Roman, serif&quot;&gt;+&lt;/font&gt;&lt;font style=&quot;font-size: 12px;&quot; face=&quot;Times New Roman, serif&quot;&gt;&lt;span lang=&quot;en-US&quot;&gt; override&lt;/span&gt;&lt;/font&gt;&lt;font style=&quot;font-size: 12px;&quot; face=&quot;Times New Roman, serif&quot;&gt; CancelOrder()&lt;/font&gt;&lt;/p&gt;" style="text;strokeColor=none;fillColor=none;align=left;verticalAlign=top;spacingLeft=4;spacingRight=4;overflow=hidden;rotatable=0;points=[[0,0.5],[1,0.5]];portConstraint=eastwest;whiteSpace=wrap;html=1;" parent="EUTnSYSas2Rt2yITV2WA-21" vertex="1">
          <mxGeometry y="34" width="160" height="56" as="geometry" />
        </mxCell>
        <mxCell id="EUTnSYSas2Rt2yITV2WA-24" value="Admin" style="swimlane;fontStyle=1;align=center;verticalAlign=top;childLayout=stackLayout;horizontal=1;startSize=26;horizontalStack=0;resizeParent=1;resizeParentMax=0;resizeLast=0;collapsible=1;marginBottom=0;whiteSpace=wrap;html=1;fillColor=#d5e8d4;strokeColor=#82b366;" parent="WIyWlLk6GJQsqaUBKTNV-1" vertex="1">
          <mxGeometry x="1520" y="200" width="160" height="170" as="geometry" />
        </mxCell>
        <mxCell id="EUTnSYSas2Rt2yITV2WA-25" value="" style="line;strokeWidth=1;fillColor=none;align=left;verticalAlign=middle;spacingTop=-1;spacingLeft=3;spacingRight=3;rotatable=0;labelPosition=right;points=[];portConstraint=eastwest;strokeColor=inherit;" parent="EUTnSYSas2Rt2yITV2WA-24" vertex="1">
          <mxGeometry y="26" width="160" height="8" as="geometry" />
        </mxCell>
        <mxCell id="EUTnSYSas2Rt2yITV2WA-26" value="&lt;font style=&quot;font-size: 12px;&quot; face=&quot;Times New Roman, serif&quot;&gt;+&lt;/font&gt;&lt;font style=&quot;font-size: 12px;&quot; face=&quot;Times New Roman, serif&quot;&gt; override&lt;/font&gt;&lt;font style=&quot;font-size: 12px;&quot; face=&quot;Times New Roman, serif&quot;&gt; CreateOrder()&lt;/font&gt;&lt;p style=&quot;line-height: 108%; margin-bottom: 0.28cm&quot;&gt;&lt;font style=&quot;font-size: 12px;&quot; face=&quot;Times New Roman, serif&quot;&gt;+&lt;/font&gt;&lt;font style=&quot;font-size: 12px;&quot; face=&quot;Times New Roman, serif&quot;&gt;&lt;span lang=&quot;en-US&quot;&gt; override&lt;/span&gt;&lt;/font&gt;&lt;font style=&quot;font-size: 12px;&quot; face=&quot;Times New Roman, serif&quot;&gt; CancelOrder()&lt;/font&gt;&lt;/p&gt;&lt;p style=&quot;line-height: 108%; margin-bottom: 0.28cm;&quot;&gt;&lt;font style=&quot;font-size: 12px;&quot; face=&quot;Times New Roman, serif&quot;&gt;+ CancelAnyOrder()&lt;/font&gt;&lt;/p&gt;&lt;p style=&quot;line-height: 108%; margin-bottom: 0.28cm;&quot;&gt;&lt;font style=&quot;font-size: 12px;&quot; face=&quot;Times New Roman, serif&quot;&gt;+ DeleteUser()&lt;/font&gt;&lt;/p&gt;&lt;font style=&quot;font-size: 12px;&quot; face=&quot;Times New Roman, serif&quot;&gt;+ CreateUser()&lt;/font&gt;&lt;br&gt;&lt;p style=&quot;line-height: 108%; margin-bottom: 0.28cm&quot;&gt;&lt;style type=&quot;text/css&quot;&gt;p { line-height: 115%; text-align: left; orphans: 2; widows: 2; margin-bottom: 0.25cm; direction: ltr; background: transparent }&lt;/style&gt;&lt;/p&gt;" style="text;strokeColor=none;fillColor=none;align=left;verticalAlign=top;spacingLeft=4;spacingRight=4;overflow=hidden;rotatable=0;points=[[0,0.5],[1,0.5]];portConstraint=eastwest;whiteSpace=wrap;html=1;" parent="EUTnSYSas2Rt2yITV2WA-24" vertex="1">
          <mxGeometry y="34" width="160" height="136" as="geometry" />
        </mxCell>
        <mxCell id="EUTnSYSas2Rt2yITV2WA-27" value="" style="endArrow=block;dashed=1;endFill=0;endSize=12;html=1;rounded=0;" parent="WIyWlLk6GJQsqaUBKTNV-1" source="EUTnSYSas2Rt2yITV2WA-18" target="EUTnSYSas2Rt2yITV2WA-17" edge="1">
          <mxGeometry width="160" relative="1" as="geometry">
            <mxPoint x="1370" y="250" as="sourcePoint" />
            <mxPoint x="1620" y="550" as="targetPoint" />
          </mxGeometry>
        </mxCell>
        <mxCell id="EUTnSYSas2Rt2yITV2WA-28" value="" style="endArrow=block;dashed=1;endFill=0;endSize=12;html=1;rounded=0;" parent="WIyWlLk6GJQsqaUBKTNV-1" source="EUTnSYSas2Rt2yITV2WA-21" target="EUTnSYSas2Rt2yITV2WA-17" edge="1">
          <mxGeometry width="160" relative="1" as="geometry">
            <mxPoint x="1825" y="530" as="sourcePoint" />
            <mxPoint x="1985" y="530" as="targetPoint" />
          </mxGeometry>
        </mxCell>
        <mxCell id="EUTnSYSas2Rt2yITV2WA-29" value="" style="endArrow=block;dashed=1;endFill=0;endSize=12;html=1;rounded=0;" parent="WIyWlLk6GJQsqaUBKTNV-1" source="EUTnSYSas2Rt2yITV2WA-24" target="EUTnSYSas2Rt2yITV2WA-17" edge="1">
          <mxGeometry width="160" relative="1" as="geometry">
            <mxPoint x="1845" y="520" as="sourcePoint" />
            <mxPoint x="2005" y="520" as="targetPoint" />
          </mxGeometry>
        </mxCell>
        <mxCell id="EUTnSYSas2Rt2yITV2WA-30" value="OrderHandleSystem" style="swimlane;fontStyle=1;align=center;verticalAlign=top;childLayout=stackLayout;horizontal=1;startSize=26;horizontalStack=0;resizeParent=1;resizeParentMax=0;resizeLast=0;collapsible=1;marginBottom=0;whiteSpace=wrap;html=1;fillColor=#dae8fc;strokeColor=#6c8ebf;" parent="WIyWlLk6GJQsqaUBKTNV-1" vertex="1">
          <mxGeometry x="1210" y="1528" width="500" height="116" as="geometry" />
        </mxCell>
        <mxCell id="EUTnSYSas2Rt2yITV2WA-40" value="+ db : IDBRequestSystem" style="text;align=left;verticalAlign=top;spacingLeft=4;spacingRight=4;overflow=hidden;rotatable=0;points=[[0,0.5],[1,0.5]];portConstraint=eastwest;" parent="EUTnSYSas2Rt2yITV2WA-30" vertex="1">
          <mxGeometry y="26" width="500" height="30" as="geometry" />
        </mxCell>
        <mxCell id="EUTnSYSas2Rt2yITV2WA-31" value="" style="line;strokeWidth=1;fillColor=none;align=left;verticalAlign=middle;spacingTop=-1;spacingLeft=3;spacingRight=3;rotatable=0;labelPosition=right;points=[];portConstraint=eastwest;strokeColor=inherit;" parent="EUTnSYSas2Rt2yITV2WA-30" vertex="1">
          <mxGeometry y="56" width="500" height="8" as="geometry" />
        </mxCell>
        <mxCell id="3G__BnJn2h25DO157lt7-2" value="+&amp;nbsp;Order CreateOrder(string creatorLogin, string buyerFullName, List&amp;lt;Guid&amp;gt; bucket)" style="text;strokeColor=none;fillColor=none;align=left;verticalAlign=top;spacingLeft=4;spacingRight=4;overflow=hidden;rotatable=0;points=[[0,0.5],[1,0.5]];portConstraint=eastwest;whiteSpace=wrap;html=1;" parent="EUTnSYSas2Rt2yITV2WA-30" vertex="1">
          <mxGeometry y="64" width="500" height="26" as="geometry" />
        </mxCell>
        <mxCell id="3G__BnJn2h25DO157lt7-1" value="&lt;font style=&quot;border-color: var(--border-color);&quot; face=&quot;Times New Roman, serif&quot;&gt;+&amp;nbsp;&lt;/font&gt;bool ReturnOrder(Guid id)" style="text;strokeColor=none;fillColor=none;align=left;verticalAlign=top;spacingLeft=4;spacingRight=4;overflow=hidden;rotatable=0;points=[[0,0.5],[1,0.5]];portConstraint=eastwest;whiteSpace=wrap;html=1;" parent="EUTnSYSas2Rt2yITV2WA-30" vertex="1">
          <mxGeometry y="90" width="500" height="26" as="geometry" />
        </mxCell>
        <mxCell id="EUTnSYSas2Rt2yITV2WA-41" value="Model" style="swimlane;fontStyle=1;align=center;verticalAlign=top;childLayout=stackLayout;horizontal=1;startSize=26;horizontalStack=0;resizeParent=1;resizeParentMax=0;resizeLast=0;collapsible=1;marginBottom=0;fillColor=#ffe6cc;strokeColor=#d79b00;" parent="WIyWlLk6GJQsqaUBKTNV-1" vertex="1">
          <mxGeometry x="1165" y="1169" width="310" height="190" as="geometry" />
        </mxCell>
        <mxCell id="EUTnSYSas2Rt2yITV2WA-34" value="+ userControlSystem : UserControlSystem" style="text;strokeColor=none;fillColor=none;align=left;verticalAlign=top;spacingLeft=4;spacingRight=4;overflow=hidden;rotatable=0;points=[[0,0.5],[1,0.5]];portConstraint=eastwest;" parent="EUTnSYSas2Rt2yITV2WA-41" vertex="1">
          <mxGeometry y="26" width="310" height="26" as="geometry" />
        </mxCell>
        <mxCell id="EUTnSYSas2Rt2yITV2WA-35" value="+ customerRequestHandler:Â CustomerRequestHandler" style="text;strokeColor=none;fillColor=none;align=left;verticalAlign=top;spacingLeft=4;spacingRight=4;overflow=hidden;rotatable=0;points=[[0,0.5],[1,0.5]];portConstraint=eastwest;" parent="EUTnSYSas2Rt2yITV2WA-41" vertex="1">
          <mxGeometry y="52" width="310" height="26" as="geometry" />
        </mxCell>
        <mxCell id="EUTnSYSas2Rt2yITV2WA-48" value="+ productCreatorÂ :Â ProductCreator" style="text;strokeColor=none;fillColor=none;align=left;verticalAlign=top;spacingLeft=4;spacingRight=4;overflow=hidden;rotatable=0;points=[[0,0.5],[1,0.5]];portConstraint=eastwest;" parent="EUTnSYSas2Rt2yITV2WA-41" vertex="1">
          <mxGeometry y="78" width="310" height="26" as="geometry" />
        </mxCell>
        <mxCell id="EUTnSYSas2Rt2yITV2WA-36" value="+ orderHandleSystem :Â OrderHandleSystem" style="text;strokeColor=none;fillColor=none;align=left;verticalAlign=top;spacingLeft=4;spacingRight=4;overflow=hidden;rotatable=0;points=[[0,0.5],[1,0.5]];portConstraint=eastwest;" parent="EUTnSYSas2Rt2yITV2WA-41" vertex="1">
          <mxGeometry y="104" width="310" height="26" as="geometry" />
        </mxCell>
        <mxCell id="EUTnSYSas2Rt2yITV2WA-70" value="+ db:Â IDBRequestSystem" style="text;strokeColor=none;fillColor=none;align=left;verticalAlign=top;spacingLeft=4;spacingRight=4;overflow=hidden;rotatable=0;points=[[0,0.5],[1,0.5]];portConstraint=eastwest;" parent="EUTnSYSas2Rt2yITV2WA-41" vertex="1">
          <mxGeometry y="130" width="310" height="26" as="geometry" />
        </mxCell>
        <mxCell id="EUTnSYSas2Rt2yITV2WA-43" value="" style="line;strokeWidth=1;fillColor=none;align=left;verticalAlign=middle;spacingTop=-1;spacingLeft=3;spacingRight=3;rotatable=0;labelPosition=right;points=[];portConstraint=eastwest;strokeColor=inherit;" parent="EUTnSYSas2Rt2yITV2WA-41" vertex="1">
          <mxGeometry y="156" width="310" height="8" as="geometry" />
        </mxCell>
        <mxCell id="EUTnSYSas2Rt2yITV2WA-44" value="Ð¼ÐµÑÐ¾Ð´Ñ Ð¿Ð¾ÑÐ²ÑÑÑÑÂ  Ð¿ÑÐ¸ ÑÑÐ¾Ð½ÑÐµ" style="text;strokeColor=none;fillColor=none;align=left;verticalAlign=top;spacingLeft=4;spacingRight=4;overflow=hidden;rotatable=0;points=[[0,0.5],[1,0.5]];portConstraint=eastwest;" parent="EUTnSYSas2Rt2yITV2WA-41" vertex="1">
          <mxGeometry y="164" width="310" height="26" as="geometry" />
        </mxCell>
        <mxCell id="EUTnSYSas2Rt2yITV2WA-46" value="" style="endArrow=open;html=1;endSize=12;startArrow=diamondThin;startSize=14;startFill=1;edgeStyle=orthogonalEdgeStyle;align=left;verticalAlign=bottom;rounded=0;" parent="WIyWlLk6GJQsqaUBKTNV-1" source="EUTnSYSas2Rt2yITV2WA-41" target="zkfFHV4jXpPFQw0GAbJ--6" edge="1">
          <mxGeometry x="-1" y="3" relative="1" as="geometry">
            <mxPoint x="1080" y="1100" as="sourcePoint" />
            <mxPoint x="1240" y="1100" as="targetPoint" />
          </mxGeometry>
        </mxCell>
        <mxCell id="EUTnSYSas2Rt2yITV2WA-50" value="" style="endArrow=open;html=1;endSize=12;startArrow=diamondThin;startSize=14;startFill=1;edgeStyle=orthogonalEdgeStyle;align=left;verticalAlign=bottom;rounded=0;" parent="WIyWlLk6GJQsqaUBKTNV-1" source="EUTnSYSas2Rt2yITV2WA-41" target="zkfFHV4jXpPFQw0GAbJ--0" edge="1">
          <mxGeometry x="-1" y="3" relative="1" as="geometry">
            <mxPoint x="1520" y="1220" as="sourcePoint" />
            <mxPoint x="1680" y="1220" as="targetPoint" />
          </mxGeometry>
        </mxCell>
        <mxCell id="EUTnSYSas2Rt2yITV2WA-55" value="" style="endArrow=open;html=1;endSize=12;startArrow=diamondThin;startSize=14;startFill=0;edgeStyle=orthogonalEdgeStyle;align=left;verticalAlign=bottom;rounded=0;movable=1;resizable=1;rotatable=1;deletable=1;editable=1;connectable=1;" parent="WIyWlLk6GJQsqaUBKTNV-1" source="zkfFHV4jXpPFQw0GAbJ--0" target="EUTnSYSas2Rt2yITV2WA-30" edge="1">
          <mxGeometry relative="1" as="geometry">
            <mxPoint x="2000" y="1240" as="sourcePoint" />
            <mxPoint x="2160" y="1240" as="targetPoint" />
            <Array as="points">
              <mxPoint x="1870" y="1573" />
            </Array>
          </mxGeometry>
        </mxCell>
        <mxCell id="EUTnSYSas2Rt2yITV2WA-56" value="" style="endArrow=open;html=1;endSize=12;startArrow=diamondThin;startSize=14;startFill=1;edgeStyle=orthogonalEdgeStyle;align=left;verticalAlign=bottom;rounded=0;" parent="WIyWlLk6GJQsqaUBKTNV-1" source="EUTnSYSas2Rt2yITV2WA-41" target="EUTnSYSas2Rt2yITV2WA-30" edge="1">
          <mxGeometry relative="1" as="geometry">
            <mxPoint x="1360" y="1410" as="sourcePoint" />
            <mxPoint x="1520" y="1410" as="targetPoint" />
            <Array as="points">
              <mxPoint x="1320" y="1450" />
              <mxPoint x="1460" y="1450" />
            </Array>
          </mxGeometry>
        </mxCell>
        <mxCell id="EUTnSYSas2Rt2yITV2WA-59" value="ÐÐµÑÐ¾Ð´ ÑÐ¾Ð»ÑÐºÐ¾ Ð´Ð»Ñ Ð°Ð´Ð¼Ð¸Ð½Ð°" style="html=1;verticalAlign=bottom;endArrow=block;rounded=0;" parent="WIyWlLk6GJQsqaUBKTNV-1" target="9LY999Uh6w9vxLKpFxIS-34" edge="1">
          <mxGeometry x="-1" y="22" width="80" relative="1" as="geometry">
            <mxPoint x="2060" y="1430" as="sourcePoint" />
            <mxPoint x="2320" y="1090" as="targetPoint" />
            <mxPoint x="6" y="-27" as="offset" />
          </mxGeometry>
        </mxCell>
        <mxCell id="EUTnSYSas2Rt2yITV2WA-61" value="ÐÐµÑÐ¾Ð´ ÑÐ¾Ð»ÑÐºÐ¾ Ð´Ð»Ñ Ð°Ð´Ð¼Ð¸Ð½Ð°" style="html=1;verticalAlign=bottom;endArrow=block;rounded=0;" parent="WIyWlLk6GJQsqaUBKTNV-1" target="9LY999Uh6w9vxLKpFxIS-35" edge="1">
          <mxGeometry x="-1" y="22" width="80" relative="1" as="geometry">
            <mxPoint x="2060" y="1490" as="sourcePoint" />
            <mxPoint x="1942.6666666666665" y="1370" as="targetPoint" />
            <mxPoint x="6" y="-27" as="offset" />
          </mxGeometry>
        </mxCell>
        <mxCell id="EUTnSYSas2Rt2yITV2WA-62" value="" style="endArrow=block;startArrow=block;endFill=1;startFill=1;html=1;rounded=0;" parent="WIyWlLk6GJQsqaUBKTNV-1" source="zkfFHV4jXpPFQw0GAbJ--6" target="zkfFHV4jXpPFQw0GAbJ--0" edge="1">
          <mxGeometry width="160" relative="1" as="geometry">
            <mxPoint x="1580" y="1000" as="sourcePoint" />
            <mxPoint x="1740" y="1000" as="targetPoint" />
            <Array as="points">
              <mxPoint x="1860" y="880" />
            </Array>
          </mxGeometry>
        </mxCell>
        <mxCell id="EUTnSYSas2Rt2yITV2WA-63" value="ProductCreator" style="swimlane;fontStyle=1;align=center;verticalAlign=top;childLayout=stackLayout;horizontal=1;startSize=26;horizontalStack=0;resizeParent=1;resizeParentMax=0;resizeLast=0;collapsible=1;marginBottom=0;fillColor=#e1d5e7;strokeColor=#9673a6;" parent="WIyWlLk6GJQsqaUBKTNV-1" vertex="1">
          <mxGeometry x="380" y="1221" width="530" height="86" as="geometry" />
        </mxCell>
        <mxCell id="EUTnSYSas2Rt2yITV2WA-65" value="" style="line;strokeWidth=1;fillColor=none;align=left;verticalAlign=middle;spacingTop=-1;spacingLeft=3;spacingRight=3;rotatable=0;labelPosition=right;points=[];portConstraint=eastwest;strokeColor=inherit;" parent="EUTnSYSas2Rt2yITV2WA-63" vertex="1">
          <mxGeometry y="26" width="530" height="8" as="geometry" />
        </mxCell>
        <mxCell id="EUTnSYSas2Rt2yITV2WA-66" value="+Â Product CreateProduct(Guid id, string name, string Manufacturer, bool InStock, decimal Price)" style="text;strokeColor=none;fillColor=none;align=left;verticalAlign=top;spacingLeft=4;spacingRight=4;overflow=hidden;rotatable=0;points=[[0,0.5],[1,0.5]];portConstraint=eastwest;" parent="EUTnSYSas2Rt2yITV2WA-63" vertex="1">
          <mxGeometry y="34" width="530" height="26" as="geometry" />
        </mxCell>
        <mxCell id="EUTnSYSas2Rt2yITV2WA-67" value="+ Demonstration()" style="text;strokeColor=none;fillColor=none;align=left;verticalAlign=top;spacingLeft=4;spacingRight=4;overflow=hidden;rotatable=0;points=[[0,0.5],[1,0.5]];portConstraint=eastwest;" parent="EUTnSYSas2Rt2yITV2WA-63" vertex="1">
          <mxGeometry y="60" width="530" height="26" as="geometry" />
        </mxCell>
        <mxCell id="EUTnSYSas2Rt2yITV2WA-68" value="" style="endArrow=open;html=1;endSize=12;startArrow=diamondThin;startSize=14;startFill=1;edgeStyle=orthogonalEdgeStyle;align=left;verticalAlign=bottom;rounded=0;" parent="WIyWlLk6GJQsqaUBKTNV-1" source="EUTnSYSas2Rt2yITV2WA-41" target="EUTnSYSas2Rt2yITV2WA-63" edge="1">
          <mxGeometry x="-1" y="3" relative="1" as="geometry">
            <mxPoint x="980" y="1350" as="sourcePoint" />
            <mxPoint x="1090" y="1310" as="targetPoint" />
            <mxPoint as="offset" />
          </mxGeometry>
        </mxCell>
        <mxCell id="EUTnSYSas2Rt2yITV2WA-71" value="" style="endArrow=open;html=1;endSize=12;startArrow=diamondThin;startSize=14;startFill=0;edgeStyle=orthogonalEdgeStyle;align=left;verticalAlign=bottom;rounded=0;" parent="WIyWlLk6GJQsqaUBKTNV-1" source="zkfFHV4jXpPFQw0GAbJ--6" target="EUTnSYSas2Rt2yITV2WA-82" edge="1">
          <mxGeometry x="-1" y="3" relative="1" as="geometry">
            <mxPoint x="940" y="1080" as="sourcePoint" />
            <mxPoint x="1100" y="1080" as="targetPoint" />
          </mxGeometry>
        </mxCell>
        <mxCell id="EUTnSYSas2Rt2yITV2WA-73" value="" style="endArrow=open;html=1;endSize=12;startArrow=diamondThin;startSize=14;startFill=0;edgeStyle=orthogonalEdgeStyle;align=left;verticalAlign=bottom;rounded=0;" parent="WIyWlLk6GJQsqaUBKTNV-1" source="zkfFHV4jXpPFQw0GAbJ--0" target="EUTnSYSas2Rt2yITV2WA-83" edge="1">
          <mxGeometry relative="1" as="geometry">
            <mxPoint x="1610" y="1100" as="sourcePoint" />
            <mxPoint x="1700" y="970" as="targetPoint" />
            <Array as="points">
              <mxPoint x="1780" y="1120" />
              <mxPoint x="1780" y="1120" />
            </Array>
          </mxGeometry>
        </mxCell>
        <mxCell id="EUTnSYSas2Rt2yITV2WA-74" value="" style="endArrow=open;html=1;endSize=12;startArrow=diamondThin;startSize=14;startFill=0;edgeStyle=orthogonalEdgeStyle;align=left;verticalAlign=bottom;rounded=0;" parent="WIyWlLk6GJQsqaUBKTNV-1" source="EUTnSYSas2Rt2yITV2WA-30" target="EUTnSYSas2Rt2yITV2WA-81" edge="1">
          <mxGeometry x="-1" y="3" relative="1" as="geometry">
            <mxPoint x="950" y="1540" as="sourcePoint" />
            <mxPoint x="1135" y="1572.9999999999995" as="targetPoint" />
          </mxGeometry>
        </mxCell>
        <mxCell id="EUTnSYSas2Rt2yITV2WA-75" value="" style="endArrow=open;html=1;endSize=12;startArrow=diamondThin;startSize=14;startFill=0;edgeStyle=orthogonalEdgeStyle;align=left;verticalAlign=bottom;rounded=0;" parent="WIyWlLk6GJQsqaUBKTNV-1" source="EUTnSYSas2Rt2yITV2WA-63" target="EUTnSYSas2Rt2yITV2WA-79" edge="1">
          <mxGeometry x="-1" y="3" relative="1" as="geometry">
            <mxPoint x="910" y="1170" as="sourcePoint" />
            <mxPoint x="780" y="917.0000000000002" as="targetPoint" />
          </mxGeometry>
        </mxCell>
        <mxCell id="EUTnSYSas2Rt2yITV2WA-79" value="1" style="strokeWidth=2;html=1;shape=mxgraph.flowchart.start_2;whiteSpace=wrap;" parent="WIyWlLk6GJQsqaUBKTNV-1" vertex="1">
          <mxGeometry x="615" y="1350" width="60" height="60" as="geometry" />
        </mxCell>
        <mxCell id="EUTnSYSas2Rt2yITV2WA-81" value="1" style="strokeWidth=2;html=1;shape=mxgraph.flowchart.start_2;whiteSpace=wrap;fillColor=#f8cecc;strokeColor=#b85450;" parent="WIyWlLk6GJQsqaUBKTNV-1" vertex="1">
          <mxGeometry x="1070" y="1556" width="60" height="60" as="geometry" />
        </mxCell>
        <mxCell id="EUTnSYSas2Rt2yITV2WA-82" value="1" style="strokeWidth=2;html=1;shape=mxgraph.flowchart.start_2;whiteSpace=wrap;fillColor=#f8cecc;strokeColor=#b85450;" parent="WIyWlLk6GJQsqaUBKTNV-1" vertex="1">
          <mxGeometry x="800" y="850" width="60" height="60" as="geometry" />
        </mxCell>
        <mxCell id="EUTnSYSas2Rt2yITV2WA-83" value="1" style="strokeWidth=2;html=1;shape=mxgraph.flowchart.start_2;whiteSpace=wrap;fillColor=#f8cecc;strokeColor=#b85450;" parent="WIyWlLk6GJQsqaUBKTNV-1" vertex="1">
          <mxGeometry x="1740" y="1007" width="60" height="60" as="geometry" />
        </mxCell>
        <mxCell id="EUTnSYSas2Rt2yITV2WA-84" value="" style="endArrow=open;html=1;endSize=12;startArrow=diamondThin;startSize=14;startFill=1;edgeStyle=orthogonalEdgeStyle;align=left;verticalAlign=bottom;rounded=0;" parent="WIyWlLk6GJQsqaUBKTNV-1" source="EUTnSYSas2Rt2yITV2WA-41" target="zkfFHV4jXpPFQw0GAbJ--17" edge="1">
          <mxGeometry relative="1" as="geometry">
            <mxPoint x="1040" y="1430" as="sourcePoint" />
            <mxPoint x="1200" y="1430" as="targetPoint" />
            <Array as="points">
              <mxPoint x="1290" y="1450" />
              <mxPoint x="830" y="1450" />
            </Array>
          </mxGeometry>
        </mxCell>
        <mxCell id="EUTnSYSas2Rt2yITV2WA-85" value="1" style="strokeWidth=2;html=1;shape=mxgraph.flowchart.start_2;whiteSpace=wrap;fillColor=#f8cecc;strokeColor=#b85450;" parent="WIyWlLk6GJQsqaUBKTNV-1" vertex="1">
          <mxGeometry x="680" y="1420" width="60" height="60" as="geometry" />
        </mxCell>
        <mxCell id="EUTnSYSas2Rt2yITV2WA-87" value="" style="endArrow=open;html=1;endSize=12;startArrow=diamondThin;startSize=14;startFill=0;edgeStyle=orthogonalEdgeStyle;align=left;verticalAlign=bottom;rounded=0;" parent="WIyWlLk6GJQsqaUBKTNV-1" source="EUTnSYSas2Rt2yITV2WA-85" target="zkfFHV4jXpPFQw0GAbJ--17" edge="1">
          <mxGeometry x="-1" y="3" relative="1" as="geometry">
            <mxPoint x="730" y="1500" as="sourcePoint" />
            <mxPoint x="730" y="1543" as="targetPoint" />
            <Array as="points">
              <mxPoint x="830" y="1450" />
            </Array>
          </mxGeometry>
        </mxCell>
        <mxCell id="EUTnSYSas2Rt2yITV2WA-88" value="1" style="strokeWidth=2;html=1;shape=mxgraph.flowchart.start_2;whiteSpace=wrap;fillColor=#f8cecc;strokeColor=#b85450;" parent="WIyWlLk6GJQsqaUBKTNV-1" vertex="1">
          <mxGeometry x="615" y="1350" width="60" height="60" as="geometry" />
        </mxCell>
      </root>
    </mxGraphModel>
  </diagram>
</mxfile>
